# xmcd
# 
# Track frame offsets:
#     150
#     22825
#     46428
#     70450
#     88858
# 
# Disc length: 1654
# 
# Revision: 0
# Processed by: cddbd v1.5.2PL0 Copyright (c) Steve Scherf et al.
# Submitted via: fre:ac v1.0.17
# 
DISCID=3c067405
DTITLE=Lunatic Fringe - Lunatic Fringe
DYEAR=1994
DGENRE=Rock
TTITLE0=Dyin' on the vine
TTITLE1=Weight upon your eyes
TTITLE2=Take back the world
TTITLE3=Can't stop it
TTITLE4=Stay in the middle
EXTD=Curtis Fornadley Band
EXTT0=
EXTT1=
EXTT2=
EXTT3=
EXTT4=
PLAYORDER=
